<mxfile host="app.diagrams.net" modified="2023-04-10T23:04:00.136Z" agent="Mozilla/5.0 (Windows NT 10.0; Win64; x64) AppleWebKit/537.36 (KHTML, like Gecko) Chrome/112.0.0.0 Safari/537.36" etag="v1Goc6Jf2t0XU3lbNMLL" version="21.1.5" type="device">
  <diagram id="ZCp6_tqYH64esf83YCCY" name="Página-4">
    <mxGraphModel dx="2980" dy="1533" grid="0" gridSize="10" guides="1" tooltips="1" connect="1" arrows="1" fold="1" page="0" pageScale="1" pageWidth="827" pageHeight="1169" math="0" shadow="0">
      <root>
        <mxCell id="0" />
        <mxCell id="1" parent="0" />
        <mxCell id="QLvrZUv4V7gMjca_LyLM-8" value="" style="html=1;verticalAlign=bottom;endArrow=open;dashed=1;endSize=8;edgeStyle=elbowEdgeStyle;elbow=vertical;curved=0;rounded=0;fontSize=12;exitX=0;exitY=0.5;exitDx=0;exitDy=0;entryX=1;entryY=0.5;entryDx=0;entryDy=0;" edge="1" parent="1" source="QLvrZUv4V7gMjca_LyLM-4" target="QLvrZUv4V7gMjca_LyLM-1">
          <mxGeometry relative="1" as="geometry">
            <mxPoint x="200" y="77" as="sourcePoint" />
            <mxPoint x="120" y="77" as="targetPoint" />
          </mxGeometry>
        </mxCell>
        <mxCell id="QLvrZUv4V7gMjca_LyLM-13" value="" style="group" vertex="1" connectable="0" parent="1">
          <mxGeometry x="-733" y="488" width="265" height="119" as="geometry" />
        </mxCell>
        <mxCell id="QLvrZUv4V7gMjca_LyLM-10" value="«Componet»&lt;br&gt;&lt;b&gt;Mobile App&amp;nbsp;&lt;br&gt;App/Web&lt;br&gt;App&lt;br&gt;&lt;/b&gt;" style="html=1;whiteSpace=wrap;fontSize=16;" vertex="1" parent="QLvrZUv4V7gMjca_LyLM-13">
          <mxGeometry width="265" height="119" as="geometry" />
        </mxCell>
        <mxCell id="QLvrZUv4V7gMjca_LyLM-11" value="" style="shape=module;align=left;spacingLeft=20;align=center;verticalAlign=top;whiteSpace=wrap;html=1;fontSize=16;" vertex="1" parent="QLvrZUv4V7gMjca_LyLM-13">
          <mxGeometry x="205" y="6" width="54" height="41" as="geometry" />
        </mxCell>
        <mxCell id="QLvrZUv4V7gMjca_LyLM-14" value="" style="group" vertex="1" connectable="0" parent="1">
          <mxGeometry x="-238" y="186" width="265" height="119" as="geometry" />
        </mxCell>
        <mxCell id="QLvrZUv4V7gMjca_LyLM-1" value="«Componet»&lt;br&gt;&lt;b&gt;Perfil Profissional&amp;nbsp;&lt;/b&gt;" style="html=1;whiteSpace=wrap;fontSize=16;" vertex="1" parent="QLvrZUv4V7gMjca_LyLM-14">
          <mxGeometry x="-5" width="265" height="119" as="geometry" />
        </mxCell>
        <mxCell id="QLvrZUv4V7gMjca_LyLM-2" value="" style="shape=module;align=left;spacingLeft=20;align=center;verticalAlign=top;whiteSpace=wrap;html=1;fontSize=16;" vertex="1" parent="QLvrZUv4V7gMjca_LyLM-14">
          <mxGeometry x="205" y="7" width="54" height="41" as="geometry" />
        </mxCell>
        <mxCell id="QLvrZUv4V7gMjca_LyLM-15" value="" style="group" vertex="1" connectable="0" parent="1">
          <mxGeometry x="273" y="186" width="265" height="119" as="geometry" />
        </mxCell>
        <mxCell id="QLvrZUv4V7gMjca_LyLM-4" value="«Componet»&lt;br&gt;&lt;b&gt;Chat Privando&amp;nbsp;&amp;nbsp;&lt;/b&gt;" style="html=1;whiteSpace=wrap;fontSize=16;" vertex="1" parent="QLvrZUv4V7gMjca_LyLM-15">
          <mxGeometry width="265" height="119" as="geometry" />
        </mxCell>
        <mxCell id="QLvrZUv4V7gMjca_LyLM-5" value="" style="shape=module;align=left;spacingLeft=20;align=center;verticalAlign=top;whiteSpace=wrap;html=1;fontSize=16;" vertex="1" parent="QLvrZUv4V7gMjca_LyLM-15">
          <mxGeometry x="203" y="7" width="54" height="41" as="geometry" />
        </mxCell>
        <mxCell id="QLvrZUv4V7gMjca_LyLM-17" value="" style="group" vertex="1" connectable="0" parent="1">
          <mxGeometry x="-744" y="186" width="265" height="119" as="geometry" />
        </mxCell>
        <mxCell id="QLvrZUv4V7gMjca_LyLM-18" value="«Componet»&lt;br&gt;&lt;b&gt;Busca Profissional&amp;nbsp;&lt;/b&gt;" style="html=1;whiteSpace=wrap;fontSize=16;" vertex="1" parent="QLvrZUv4V7gMjca_LyLM-17">
          <mxGeometry width="265" height="119" as="geometry" />
        </mxCell>
        <mxCell id="QLvrZUv4V7gMjca_LyLM-19" value="" style="shape=module;align=left;spacingLeft=20;align=center;verticalAlign=top;whiteSpace=wrap;html=1;fontSize=16;" vertex="1" parent="QLvrZUv4V7gMjca_LyLM-17">
          <mxGeometry x="205" y="7" width="54" height="41" as="geometry" />
        </mxCell>
        <mxCell id="QLvrZUv4V7gMjca_LyLM-22" value="" style="html=1;verticalAlign=bottom;endArrow=open;dashed=1;endSize=8;edgeStyle=elbowEdgeStyle;elbow=vertical;curved=0;rounded=0;fontSize=12;exitX=1;exitY=1;exitDx=0;exitDy=0;entryX=0;entryY=0.5;entryDx=0;entryDy=0;" edge="1" parent="1" source="QLvrZUv4V7gMjca_LyLM-19" target="QLvrZUv4V7gMjca_LyLM-1">
          <mxGeometry x="0.0081" relative="1" as="geometry">
            <mxPoint x="-328" y="244.91" as="sourcePoint" />
            <mxPoint x="-408" y="244.91" as="targetPoint" />
            <Array as="points">
              <mxPoint x="-256" y="246" />
            </Array>
            <mxPoint as="offset" />
          </mxGeometry>
        </mxCell>
        <mxCell id="QLvrZUv4V7gMjca_LyLM-23" value="" style="html=1;verticalAlign=bottom;endArrow=open;dashed=1;endSize=8;edgeStyle=elbowEdgeStyle;elbow=vertical;curved=0;rounded=0;fontSize=12;exitX=0.5;exitY=0;exitDx=0;exitDy=0;entryX=0.5;entryY=0;entryDx=0;entryDy=0;" edge="1" parent="1" source="QLvrZUv4V7gMjca_LyLM-18" target="QLvrZUv4V7gMjca_LyLM-4">
          <mxGeometry relative="1" as="geometry">
            <mxPoint x="-198" y="70" as="sourcePoint" />
            <mxPoint x="331" y="-251" as="targetPoint" />
            <Array as="points">
              <mxPoint x="-102" y="80" />
            </Array>
          </mxGeometry>
        </mxCell>
        <mxCell id="QLvrZUv4V7gMjca_LyLM-24" value="" style="html=1;verticalAlign=bottom;endArrow=open;dashed=1;endSize=8;edgeStyle=elbowEdgeStyle;elbow=vertical;curved=0;rounded=0;fontSize=12;entryX=0.5;entryY=1;entryDx=0;entryDy=0;" edge="1" parent="1" target="QLvrZUv4V7gMjca_LyLM-1">
          <mxGeometry relative="1" as="geometry">
            <mxPoint x="-111" y="553" as="sourcePoint" />
            <mxPoint x="-173" y="381" as="targetPoint" />
          </mxGeometry>
        </mxCell>
        <mxCell id="QLvrZUv4V7gMjca_LyLM-25" value="" style="group" vertex="1" connectable="0" parent="1">
          <mxGeometry x="-1047" y="-83" width="265" height="119" as="geometry" />
        </mxCell>
        <mxCell id="QLvrZUv4V7gMjca_LyLM-26" value="«Componet»&lt;br&gt;&lt;b&gt;Perfil Usuario&amp;nbsp;&lt;br&gt;&lt;/b&gt;" style="html=1;whiteSpace=wrap;fontSize=16;" vertex="1" parent="QLvrZUv4V7gMjca_LyLM-25">
          <mxGeometry width="265" height="119" as="geometry" />
        </mxCell>
        <mxCell id="QLvrZUv4V7gMjca_LyLM-27" value="" style="shape=module;align=left;spacingLeft=20;align=center;verticalAlign=top;whiteSpace=wrap;html=1;fontSize=16;" vertex="1" parent="QLvrZUv4V7gMjca_LyLM-25">
          <mxGeometry x="205" y="6" width="54" height="41" as="geometry" />
        </mxCell>
        <mxCell id="QLvrZUv4V7gMjca_LyLM-28" value="" style="html=1;verticalAlign=bottom;endArrow=open;dashed=1;endSize=8;edgeStyle=elbowEdgeStyle;elbow=vertical;curved=0;rounded=0;fontSize=12;exitX=0.5;exitY=1;exitDx=0;exitDy=0;entryX=0.001;entryY=0.677;entryDx=0;entryDy=0;entryPerimeter=0;" edge="1" parent="1" source="QLvrZUv4V7gMjca_LyLM-26" target="QLvrZUv4V7gMjca_LyLM-18">
          <mxGeometry relative="1" as="geometry">
            <mxPoint x="-705" y="313" as="sourcePoint" />
            <mxPoint x="-816" y="269" as="targetPoint" />
            <Array as="points">
              <mxPoint x="-876" y="266" />
            </Array>
          </mxGeometry>
        </mxCell>
        <mxCell id="QLvrZUv4V7gMjca_LyLM-30" value="" style="html=1;verticalAlign=bottom;endArrow=open;dashed=1;endSize=8;edgeStyle=elbowEdgeStyle;elbow=vertical;curved=0;rounded=0;fontSize=12;exitX=0;exitY=0.5;exitDx=0;exitDy=0;entryX=0.25;entryY=1;entryDx=0;entryDy=0;" edge="1" parent="1" source="QLvrZUv4V7gMjca_LyLM-10" target="QLvrZUv4V7gMjca_LyLM-26">
          <mxGeometry x="0.3285" y="-47" relative="1" as="geometry">
            <mxPoint x="-908" y="193" as="sourcePoint" />
            <mxPoint x="-1018" y="41" as="targetPoint" />
            <Array as="points">
              <mxPoint x="-938" y="553" />
            </Array>
            <mxPoint as="offset" />
          </mxGeometry>
        </mxCell>
        <mxCell id="QLvrZUv4V7gMjca_LyLM-21" value="" style="html=1;verticalAlign=bottom;endArrow=open;dashed=1;endSize=8;edgeStyle=elbowEdgeStyle;elbow=vertical;curved=0;rounded=0;fontSize=12;entryX=0.424;entryY=1.021;entryDx=0;entryDy=0;exitX=1;exitY=0.5;exitDx=0;exitDy=0;entryPerimeter=0;" edge="1" parent="1" source="QLvrZUv4V7gMjca_LyLM-10" target="QLvrZUv4V7gMjca_LyLM-4">
          <mxGeometry relative="1" as="geometry">
            <mxPoint x="-64" y="551.5" as="sourcePoint" />
            <mxPoint x="-144" y="551.5" as="targetPoint" />
            <Array as="points">
              <mxPoint x="-119" y="551.5" />
            </Array>
          </mxGeometry>
        </mxCell>
        <mxCell id="QLvrZUv4V7gMjca_LyLM-31" value="" style="html=1;verticalAlign=bottom;endArrow=open;dashed=1;endSize=8;edgeStyle=elbowEdgeStyle;elbow=vertical;curved=0;rounded=0;fontSize=12;entryX=0.5;entryY=1;entryDx=0;entryDy=0;" edge="1" parent="1" target="QLvrZUv4V7gMjca_LyLM-18">
          <mxGeometry x="0.0009" relative="1" as="geometry">
            <mxPoint x="-611" y="486" as="sourcePoint" />
            <mxPoint x="-556" y="87" as="targetPoint" />
            <mxPoint as="offset" />
          </mxGeometry>
        </mxCell>
        <mxCell id="QLvrZUv4V7gMjca_LyLM-34" value="" style="group" vertex="1" connectable="0" parent="1">
          <mxGeometry x="245" y="-238" width="265" height="119" as="geometry" />
        </mxCell>
        <mxCell id="QLvrZUv4V7gMjca_LyLM-35" value="«Componet»&lt;br&gt;&lt;b&gt;Firebase&lt;br&gt;&lt;/b&gt;" style="html=1;whiteSpace=wrap;fontSize=16;" vertex="1" parent="QLvrZUv4V7gMjca_LyLM-34">
          <mxGeometry width="265" height="119" as="geometry" />
        </mxCell>
        <mxCell id="QLvrZUv4V7gMjca_LyLM-36" value="" style="shape=module;align=left;spacingLeft=20;align=center;verticalAlign=top;whiteSpace=wrap;html=1;fontSize=16;" vertex="1" parent="QLvrZUv4V7gMjca_LyLM-34">
          <mxGeometry x="205" y="6" width="54" height="41" as="geometry" />
        </mxCell>
        <mxCell id="QLvrZUv4V7gMjca_LyLM-37" value="" style="html=1;verticalAlign=bottom;endArrow=open;dashed=1;endSize=8;edgeStyle=elbowEdgeStyle;elbow=vertical;curved=0;rounded=0;fontSize=12;exitX=0.25;exitY=0;exitDx=0;exitDy=0;entryX=0;entryY=0.5;entryDx=0;entryDy=0;" edge="1" parent="1" source="QLvrZUv4V7gMjca_LyLM-18" target="QLvrZUv4V7gMjca_LyLM-35">
          <mxGeometry relative="1" as="geometry">
            <mxPoint x="-244" y="455" as="sourcePoint" />
            <mxPoint x="-324" y="455" as="targetPoint" />
            <Array as="points">
              <mxPoint x="-239" y="-179" />
            </Array>
          </mxGeometry>
        </mxCell>
      </root>
    </mxGraphModel>
  </diagram>
</mxfile>
